# xmcd
#
# Track frame offsets:
#	150
#	10003
#	26513
#	44373
#	64572
#	87084
#	100247
#	119100
#	131153
#	147870
#	161629
#	180748
#	200075
#	210230
#	226871
#
# Disc length: 3435 seconds
#
# Revision: 1
# Processed by: cddbd v1.5.2PL0 Copyright (c) Steve Scherf et al.
# Submitted via: EZCDAudioConverter 2.1.7.1
#
DISCID=ca0d690f
DTITLE=V/A - Well... All Right!
DYEAR=1900
DGENRE=MOJO
TTITLE0=Buddy Holly - Well… All Right
TTITLE1=Big Kids - I'm Bored
TTITLE2=F J McMahon - Sister Brother
TTITLE3=Bonobo - Between The Lines [Instrumental]
TTITLE4=The Woodentops - Why [Live]
TTITLE5=Buffy Sainte-Marie - He's A Keeper Of The Fire
TTITLE6=Yage - The Woodlands Of Old
TTITLE7=Hank Mizell - Jungle Rock
TTITLE8=Black Mountain - No Satisfaction
TTITLE9=Pisces - Sam
TTITLE10=Zoot Woman - Grey Day
TTITLE11=Cape Kennedy Construction Company - Armageddon
TTITLE12=Conway Twitty - Lonely Boy Blue
TTITLE13=Alan Hull - We Can Swing Together [Live]
TTITLE14=Nina Simone - House Of The Rising Sun [Live]
EXTD=
EXTT0=
EXTT1=
EXTT2=
EXTT3=
EXTT4=
EXTT5=
EXTT6=
EXTT7=
EXTT8=
EXTT9=
EXTT10=
EXTT11=
EXTT12=
EXTT13=
EXTT14=
PLAYORDER=
